<svg preserveAspectRatio="none" overflow="visible" style="display: block;" width="276.53" height="349.189" viewBox="0 0 276.53 349.189" fill="none" xmlns="http://www.w3.org/2000/svg">
<g id="Group">
<path id="Vector" d="M124.45 287.739C121.783 306.405 119.117 321.739 116.45 333.739" stroke="#2A2622" stroke-width="4.9" stroke-linecap="round" stroke-linejoin="round"/>
<path id="Vector_2" d="M168.45 287.739C171.117 306.405 173.783 321.739 176.45 333.739" stroke="#2A2622" stroke-width="4.9" stroke-linecap="round" stroke-linejoin="round"/>
<path id="Vector_3" d="M88.45 337.739C101.783 329.739 113.783 329.739 124.45 337.739C113.783 345.739 101.783 348.405 88.45 345.739V337.739Z" fill="#2A2622" stroke="#2A2622" stroke-width="4.9" stroke-linecap="round" stroke-linejoin="round"/>
<path id="Vector_4" d="M168.45 337.739C180.45 329.739 193.117 329.739 206.45 337.739C194.45 345.739 181.783 348.405 168.45 345.739V337.739Z" fill="#2A2622" stroke="#2A2622" stroke-width="4.9" stroke-linecap="round" stroke-linejoin="round"/>
<path id="Vector_5" d="M48.45 217.739C19.1167 191.072 9.11667 159.072 18.45 121.739" stroke="#2A2622" stroke-width="4.9" stroke-linecap="round" stroke-linejoin="round"/>
<path id="Vector_6" d="M18.45 129.739C27.2866 129.739 34.45 122.575 34.45 113.739C34.45 104.902 27.2866 97.7388 18.45 97.7388C9.61344 97.7388 2.45 104.902 2.45 113.739C2.45 122.575 9.61344 129.739 18.45 129.739Z" fill="white" stroke="#2A2622" stroke-width="4.9" stroke-linecap="round" stroke-linejoin="round"/>
<path id="Vector_7" d="M244.45 217.739C271.117 224.405 279.783 240.405 270.45 265.739C262.45 271.072 253.783 267.739 244.45 255.739" stroke="#2A2622" stroke-width="4.9" stroke-linecap="round" stroke-linejoin="round"/>
<path id="Vector_8" d="M146.45 295.739C204.992 295.739 252.45 252.758 252.45 199.739C252.45 146.719 204.992 103.739 146.45 103.739C87.9078 103.739 40.45 146.719 40.45 199.739C40.45 252.758 87.9078 295.739 146.45 295.739Z" fill="#DA6752" stroke="#2A2622" stroke-width="4.9" stroke-linecap="round" stroke-linejoin="round"/>
<path id="Vector_9" d="M74.45 155.739C82.45 137.072 96.45 124.405 116.45 117.739" stroke="white" stroke-opacity="0.5" stroke-width="7" stroke-linecap="round" stroke-linejoin="round"/>
<path id="Vector_10" d="M82.45 226.739C90.7343 226.739 97.45 222.709 97.45 217.739C97.45 212.768 90.7343 208.739 82.45 208.739C74.1657 208.739 67.45 212.768 67.45 217.739C67.45 222.709 74.1657 226.739 82.45 226.739Z" fill="#F5AB9E" fill-opacity="0.8"/>
<path id="Vector_11" d="M210.45 226.739C218.734 226.739 225.45 222.709 225.45 217.739C225.45 212.768 218.734 208.739 210.45 208.739C202.166 208.739 195.45 212.768 195.45 217.739C195.45 222.709 202.166 226.739 210.45 226.739Z" fill="#F5AB9E" fill-opacity="0.8"/>
<path id="Vector_12" d="M114.45 205.739C126.6 205.739 136.45 193.203 136.45 177.739C136.45 162.275 126.6 149.739 114.45 149.739C102.3 149.739 92.45 162.275 92.45 177.739C92.45 193.203 102.3 205.739 114.45 205.739Z" fill="white" stroke="#2A2622" stroke-width="4.9" stroke-linecap="round" stroke-linejoin="round"/>
<path id="Vector_13" d="M178.45 205.739C190.6 205.739 200.45 193.203 200.45 177.739C200.45 162.275 190.6 149.739 178.45 149.739C166.3 149.739 156.45 162.275 156.45 177.739C156.45 193.203 166.3 205.739 178.45 205.739Z" fill="white" stroke="#2A2622" stroke-width="4.9" stroke-linecap="round" stroke-linejoin="round"/>
<path id="Vector_14" d="M119.45 182.739C124.973 182.739 129.45 178.262 129.45 172.739C129.45 167.216 124.973 162.739 119.45 162.739C113.927 162.739 109.45 167.216 109.45 172.739C109.45 178.262 113.927 182.739 119.45 182.739Z" fill="#2A2622"/>
<path id="Vector_15" d="M122.95 172.239C124.883 172.239 126.45 170.672 126.45 168.739C126.45 166.806 124.883 165.239 122.95 165.239C121.017 165.239 119.45 166.806 119.45 168.739C119.45 170.672 121.017 172.239 122.95 172.239Z" fill="white"/>
<path id="Vector_16" d="M183.45 182.739C188.973 182.739 193.45 178.262 193.45 172.739C193.45 167.216 188.973 162.739 183.45 162.739C177.927 162.739 173.45 167.216 173.45 172.739C173.45 178.262 177.927 182.739 183.45 182.739Z" fill="#2A2622"/>
<path id="Vector_17" d="M186.95 172.239C188.883 172.239 190.45 170.672 190.45 168.739C190.45 166.806 188.883 165.239 186.95 165.239C185.017 165.239 183.45 166.806 183.45 168.739C183.45 170.672 185.017 172.239 186.95 172.239Z" fill="white"/>
<path id="Vector_18" d="M120.45 225.739C137.783 251.739 155.117 251.739 172.45 225.739H120.45Z" fill="#5B261D" stroke="#2A2622" stroke-width="4.9" stroke-linecap="round" stroke-linejoin="round"/>
<path id="Vector_19" d="M133.45 245.239C142.117 252.172 151.217 252.172 160.75 245.239Z" fill="#F38E82"/>
<path id="Vector_20" d="M42.45 189.739C42.45 129.739 77.1167 99.7388 146.45 99.7388C215.783 99.7388 250.45 129.739 250.45 189.739" stroke="#2A2622" stroke-width="6.3" stroke-linecap="round" stroke-linejoin="round"/>
<path id="Vector_21" d="M43.45 167.739H41.45C34.8226 167.739 29.45 173.111 29.45 179.739V199.739C29.45 206.366 34.8226 211.739 41.45 211.739H43.45C50.0774 211.739 55.45 206.366 55.45 199.739V179.739C55.45 173.111 50.0774 167.739 43.45 167.739Z" fill="#2A2622" stroke="#2A2622" stroke-width="4.9" stroke-linecap="round" stroke-linejoin="round"/>
<path id="Vector_22" d="M251.45 167.739H249.45C242.823 167.739 237.45 173.111 237.45 179.739V199.739C237.45 206.366 242.823 211.739 249.45 211.739H251.45C258.077 211.739 263.45 206.366 263.45 199.739V179.739C263.45 173.111 258.077 167.739 251.45 167.739Z" fill="#2A2622" stroke="#2A2622" stroke-width="4.9" stroke-linecap="round" stroke-linejoin="round"/>
<path id="Vector_23" d="M42.45 209.739C46.45 229.739 69.1167 239.072 110.45 237.739" stroke="#2A2622" stroke-width="4.2" stroke-linecap="round" stroke-linejoin="round"/>
<path id="Vector_24" d="M117.45 230.739H111.45C107.584 230.739 104.45 233.873 104.45 237.739C104.45 241.605 107.584 244.739 111.45 244.739H117.45C121.316 244.739 124.45 241.605 124.45 237.739C124.45 233.873 121.316 230.739 117.45 230.739Z" fill="#EDCF8E" stroke="#2A2622" stroke-width="4.9" stroke-linecap="round" stroke-linejoin="round"/>
<g id="Group_2">
<path id="Vector_25" d="M88.4571 109.713C46.7948 95.9927 52.0392 31.0889 99.4597 42.193C103.235 1.57585 162.906 -4.69586 175.043 34.2488C219.119 13.5281 237.743 75.9232 199.844 98.0057L88.4571 109.713Z" fill="white" stroke="#2A2622" stroke-width="4.9" stroke-linecap="round" stroke-linejoin="round"/>
<path id="Vector_26" d="M121.435 98.2028C116.971 81.2431 116.624 65.1914 120.395 50.0476M165.194 93.6035C166.034 76.0864 163.035 60.3134 156.198 46.2846" stroke="#2A2622" stroke-opacity="0.35" stroke-width="2.8" stroke-linecap="round" stroke-linejoin="round"/>
<path id="Vector_27" d="M189.271 93.0839L97.7752 102.701C93.3811 103.162 90.1934 107.099 90.6553 111.493L92.3277 127.405C92.7895 131.799 96.726 134.987 101.12 134.525L192.616 124.909C197.01 124.447 200.198 120.51 199.736 116.116L198.064 100.204C197.602 95.8098 193.665 92.622 189.271 93.0839Z" fill="white" stroke="#2A2622" stroke-width="4.9" stroke-linecap="round" stroke-linejoin="round"/>
</g>
</g>
</svg>
