<svg preserveAspectRatio="none" overflow="visible" style="display: block;" width="39" height="77.9841" viewBox="0 0 39 77.9841" fill="none" xmlns="http://www.w3.org/2000/svg">
<path id="Ellipse" d="M-1.70474e-06 0C10.247 -4.4791e-07 20.0823 4.03284 27.3796 11.2266C34.6768 18.4204 38.8497 28.1972 38.996 38.4431C39.1423 48.689 35.2504 58.5809 28.1615 65.9802C21.0726 73.3794 11.3565 77.6915 1.11368 77.9841L0.885236 69.9874C9.02695 69.7548 16.75 66.3272 22.3848 60.4458C28.0195 54.5643 31.1131 46.7015 30.9968 38.5573C30.8805 30.4131 27.5636 22.6419 21.7632 16.9237C15.9629 11.2056 8.14504 8 -1.35505e-06 8L-1.70474e-06 0Z" fill="#E9A93A"/>
</svg>
