<svg preserveAspectRatio="none" overflow="visible" style="display: block;" width="34.8536" height="59.225" viewBox="0 0 34.8536 59.225" fill="none" xmlns="http://www.w3.org/2000/svg">
<g id="Group">
<path id="Vector" d="M17.4268 16.7857C25.7068 16.7857 31.9168 28.5157 33.2968 39.5557C35.3668 53.7007 28.1218 58.5307 17.4268 58.5307C6.73181 58.5307 -0.513187 53.7007 1.55681 39.5557C2.93681 28.5157 9.14681 16.7857 17.4268 16.7857Z" fill="#648E40" stroke="#2A2622" stroke-width="1.38863" stroke-linecap="round" stroke-linejoin="round"/>
<path id="Vector_2" d="M17.4268 20.9257C23.6368 20.9257 28.4668 30.5857 29.8468 40.2457C31.2268 51.2857 25.7068 55.0807 17.4268 55.0807C9.14681 55.0807 3.62681 51.2857 5.00681 40.2457C6.38681 30.5857 11.2168 20.9257 17.4268 20.9257Z" fill="#D7E3A9"/>
<path id="Vector_3" d="M17.4268 53.3557C20.4754 53.3557 22.9468 50.8843 22.9468 47.8357C22.9468 44.7871 20.4754 42.3157 17.4268 42.3157C14.3782 42.3157 11.9068 44.7871 11.9068 47.8357C11.9068 50.8843 14.3782 53.3557 17.4268 53.3557Z" fill="#895F39" stroke="#2A2622" stroke-width="1.38863" stroke-linecap="round" stroke-linejoin="round"/>
<path id="Vector_4" d="M11.9068 35.2432C13.6883 35.2432 15.1326 33.6213 15.1326 31.6207C15.1326 29.62 13.6883 27.9982 11.9068 27.9982C10.1253 27.9982 8.68106 29.62 8.68106 31.6207C8.68106 33.6213 10.1253 35.2432 11.9068 35.2432Z" fill="white" stroke="#2A2622" stroke-width="1.38863" stroke-linecap="round" stroke-linejoin="round"/>
<path id="Vector_5" d="M22.9468 35.2432C24.7283 35.2432 26.1726 33.6213 26.1726 31.6207C26.1726 29.62 24.7283 27.9982 22.9468 27.9982C21.1653 27.9982 19.7211 29.62 19.7211 31.6207C19.7211 33.6213 21.1653 35.2432 22.9468 35.2432Z" fill="white" stroke="#2A2622" stroke-width="1.38863" stroke-linecap="round" stroke-linejoin="round"/>
<path id="Vector_6" d="M12.2518 34.0357C13.014 34.0357 13.6318 33.4178 13.6318 32.6557C13.6318 31.8935 13.014 31.2757 12.2518 31.2757C11.4897 31.2757 10.8718 31.8935 10.8718 32.6557C10.8718 33.4178 11.4897 34.0357 12.2518 34.0357Z" fill="#2A2622"/>
<path id="Vector_7" d="M12.7348 32.5867C13.0016 32.5867 13.2178 32.3704 13.2178 32.1037C13.2178 31.8369 13.0016 31.6207 12.7348 31.6207C12.4681 31.6207 12.2518 31.8369 12.2518 32.1037C12.2518 32.3704 12.4681 32.5867 12.7348 32.5867Z" fill="white"/>
<path id="Vector_8" d="M23.2918 34.0357C24.054 34.0357 24.6718 33.4178 24.6718 32.6557C24.6718 31.8935 24.054 31.2757 23.2918 31.2757C22.5297 31.2757 21.9118 31.8935 21.9118 32.6557C21.9118 33.4178 22.5297 34.0357 23.2918 34.0357Z" fill="#2A2622"/>
<path id="Vector_9" d="M23.7748 32.5867C24.0416 32.5867 24.2578 32.3704 24.2578 32.1037C24.2578 31.8369 24.0416 31.6207 23.7748 31.6207C23.5081 31.6207 23.2918 31.8369 23.2918 32.1037C23.2918 32.3704 23.5081 32.5867 23.7748 32.5867Z" fill="white"/>
<path id="Vector_10" d="M8.30156 31.6207C10.7051 28.0787 13.1086 28.0787 15.5121 31.6207H8.30156Z" fill="#D7E3A9" stroke="#2A2622" stroke-width="1.38863" stroke-linecap="round" stroke-linejoin="round"/>
<path id="Vector_11" d="M19.3416 31.6207C21.7451 28.0787 24.1486 28.0787 26.5521 31.6207H19.3416Z" fill="#D7E3A9" stroke="#2A2622" stroke-width="1.38863" stroke-linecap="round" stroke-linejoin="round"/>
<path id="Vector_12" d="M14.2873 37.4857C16.3803 39.2797 18.4733 39.2797 20.5663 37.4857" stroke="#2A2622" stroke-width="1.38863" stroke-linecap="round" stroke-linejoin="round"/>
<path id="Vector_13" d="M2.93681 34.0357C2.93681 22.5357 7.76681 16.7857 17.4268 16.7857C27.0868 16.7857 31.9168 22.5357 31.9168 34.0357" stroke="#2A2622" stroke-width="1.78537" stroke-linecap="round" stroke-linejoin="round"/>
<path id="Vector_14" d="M3.10931 30.2407H2.76431C1.62108 30.2407 0.694313 31.1675 0.694313 32.3107V35.7607C0.694313 36.9039 1.62108 37.8307 2.76431 37.8307H3.10931C4.25254 37.8307 5.17931 36.9039 5.17931 35.7607V32.3107C5.17931 31.1675 4.25254 30.2407 3.10931 30.2407Z" fill="#2A2622" stroke="#2A2622" stroke-width="1.38863" stroke-linecap="round" stroke-linejoin="round"/>
<path id="Vector_15" d="M32.0893 30.2407H31.7443C30.6011 30.2407 29.6743 31.1675 29.6743 32.3107V35.7607C29.6743 36.9039 30.6011 37.8307 31.7443 37.8307H32.0893C33.2325 37.8307 34.1593 36.9039 34.1593 35.7607V32.3107C34.1593 31.1675 33.2325 30.2407 32.0893 30.2407Z" fill="#2A2622" stroke="#2A2622" stroke-width="1.38863" stroke-linecap="round" stroke-linejoin="round"/>
<path id="Vector_16" d="M2.93681 37.4857C3.62681 39.0957 6.38681 39.7857 11.2168 39.5557" stroke="#2A2622" stroke-width="1.19025" stroke-linecap="round" stroke-linejoin="round"/>
<path id="Vector_17" d="M12.4243 38.3482H11.3893C10.7224 38.3482 10.1818 38.8888 10.1818 39.5557C10.1818 40.2226 10.7224 40.7632 11.3893 40.7632H12.4243C13.0912 40.7632 13.6318 40.2226 13.6318 39.5557C13.6318 38.8888 13.0912 38.3482 12.4243 38.3482Z" fill="#A5C7B4" stroke="#2A2622" stroke-width="1.38863" stroke-linecap="round" stroke-linejoin="round"/>
<g id="Group_2">
<path id="Vector_18" d="M8.05507 16.8111C1.38847 13.2323 4.22354 2.36363 11.9467 5.67042C13.8046 -1.11651 24.1294 -0.394528 25.0248 6.58493C33.1329 4.38517 34.4278 15.5427 27.328 18.1588L8.05507 16.8111Z" fill="white" stroke="#2A2622" stroke-width="1.38863" stroke-linecap="round" stroke-linejoin="round"/>
<path id="Vector_19" d="M14.002 15.8436C13.7517 12.8288 14.1737 10.0915 15.2679 7.63188M21.5736 16.373C22.241 13.4224 22.2041 10.6531 21.4628 8.06507" stroke="#2A2622" stroke-opacity="0.35" stroke-width="0.7935" stroke-linecap="round" stroke-linejoin="round"/>
<path id="Vector_20" d="M25.6794 17.006L9.84807 15.8989C9.08777 15.8458 8.42833 16.419 8.37516 17.1793L8.18264 19.9326C8.12947 20.6929 8.70271 21.3523 9.46301 21.4055L25.2944 22.5125C26.0546 22.5657 26.7141 21.9925 26.7673 21.2322L26.9598 18.4789C27.0129 17.7186 26.4397 17.0591 25.6794 17.006Z" fill="white" stroke="#2A2622" stroke-width="1.38863" stroke-linecap="round" stroke-linejoin="round"/>
</g>
</g>
</svg>
