<svg preserveAspectRatio="none" overflow="visible" style="display: block;" width="22" height="22" viewBox="0 0 22 22" fill="none" xmlns="http://www.w3.org/2000/svg">
<g id="icon/camera">
<path id="Vector" d="M3.66667 6.41667H6.41667L8.25 3.66667H13.75L15.5833 6.41667H18.3333C18.5764 6.41667 18.8096 6.51324 18.9815 6.68515C19.1534 6.85706 19.25 7.09022 19.25 7.33333V17.4167C19.25 17.6598 19.1534 17.8929 18.9815 18.0648C18.8096 18.2368 18.5764 18.3333 18.3333 18.3333H3.66667C3.42355 18.3333 3.19039 18.2368 3.01849 18.0648C2.84658 17.8929 2.75 17.6598 2.75 17.4167V7.33333C2.75 7.09022 2.84658 6.85706 3.01849 6.68515C3.19039 6.51324 3.42355 6.41667 3.66667 6.41667Z" stroke="white" stroke-width="1.8" stroke-linecap="round" stroke-linejoin="round"/>
<path id="Vector_2" d="M11 15.5833C13.025 15.5833 14.6667 13.9417 14.6667 11.9167C14.6667 9.89162 13.025 8.25 11 8.25C8.97496 8.25 7.33333 9.89162 7.33333 11.9167C7.33333 13.9417 8.97496 15.5833 11 15.5833Z" stroke="white" stroke-width="1.8" stroke-linecap="round" stroke-linejoin="round"/>
</g>
</svg>
